HIERARCHY
ROOT Hips
{
  OFFSET 3.92544 6.39728 0
  CHANNELS 6 Xposition Yposition Zposition Zrotation Xrotation Yrotation
  JOINT BN_Spine_01
  {
    OFFSET 5.06197 -0.168311 0
    CHANNELS 6 Xposition Yposition Zposition Zrotation Xrotation Yrotation
    JOINT BN_Spine_02
    {
      OFFSET 14.8952 0 0
      CHANNELS 6 Xposition Yposition Zposition Zrotation Xrotation Yrotation
      JOINT BN_Spine_03
      {
        OFFSET 14.3786 0 0
        CHANNELS 6 Xposition Yposition Zposition Zrotation Xrotation Yrotation
        JOINT BN__Neck_01
        {
          OFFSET 15.3325 0 0
          CHANNELS 6 Xposition Yposition Zposition Zrotation Xrotation Yrotation
          JOINT BN__Neck_02
          {
            OFFSET 11.0839 0 0
            CHANNELS 6 Xposition Yposition Zposition Zrotation Xrotation Yrotation
            JOINT BN__Neck_R_01
            {
              OFFSET 3.85383 1.1973 3.491
              CHANNELS 6 Xposition Yposition Zposition Zrotation Xrotation Yrotation
              End Site
              {
                OFFSET 0 0 0
              }
            }
            JOINT BN__Neck_L_01
            {
              OFFSET 3.85383 1.1973 -3.49098
              CHANNELS 6 Xposition Yposition Zposition Zrotation Xrotation Yrotation
              End Site
              {
                OFFSET 0 0 0
              }
            }
            JOINT BN_Head_01
            {
              OFFSET 9.67523 0 0
              CHANNELS 6 Xposition Yposition Zposition Zrotation Xrotation Yrotation
              JOINT BN_Mouth_01
              {
                OFFSET 1.08197 -0.588672 0
                CHANNELS 6 Xposition Yposition Zposition Zrotation Xrotation Yrotation
                JOINT BN_Tongue_01
                {
                  OFFSET 2.17792 0.065941 0
                  CHANNELS 6 Xposition Yposition Zposition Zrotation Xrotation Yrotation
                  JOINT BN_Tongue_02
                  {
                    OFFSET 3.80658 -0.000201226 0
                    CHANNELS 6 Xposition Yposition Zposition Zrotation Xrotation Yrotation
                    End Site
                    {
                      OFFSET 0 0 0
                    }
                  }
                }
              }
            }
          }
        }
      }
    }
  }
  JOINT BN_Tail_01
  {
    OFFSET 4.67587 -0.164094 0
    CHANNELS 6 Xposition Yposition Zposition Zrotation Xrotation Yrotation
    JOINT BN_Tail_02
    {
      OFFSET 13.1147 2.52724e-005 0
      CHANNELS 6 Xposition Yposition Zposition Zrotation Xrotation Yrotation
      JOINT BN_Tail_03
      {
        OFFSET 13.4995 9.10759e-005 0
        CHANNELS 6 Xposition Yposition Zposition Zrotation Xrotation Yrotation
        JOINT BN_Tail_04
        {
          OFFSET 13.2851 0 0
          CHANNELS 6 Xposition Yposition Zposition Zrotation Xrotation Yrotation
          JOINT BN_Tail_05
          {
            OFFSET 14.6528 0.000106812 0
            CHANNELS 6 Xposition Yposition Zposition Zrotation Xrotation Yrotation
            JOINT BN_Tail_06
            {
              OFFSET 13.1048 0 0
              CHANNELS 6 Xposition Yposition Zposition Zrotation Xrotation Yrotation
              JOINT BN_Tail_07
              {
                OFFSET 11.869 0.000113964 0
                CHANNELS 6 Xposition Yposition Zposition Zrotation Xrotation Yrotation
                End Site
                {
                  OFFSET 0 0 0
                }
              }
            }
          }
        }
      }
    }
  }
}
MOTION
Frames:	4
Frame Time:	0.0333333
79.4772 3.96292 -6.04769 0.985502 0.425201 92.8046 5.06197 -0.168311 -1.42109e-013 0.443472 -8.16425 23.6605 14.8952 4.76837e-007 2.86102e-006 1.73042 6.34253 33.0298 14.3786 6.66134e-016 7.10543e-015 -0.725267 7.30503 17.6426 15.3325 -7.10543e-015 -7.10543e-015 -2.17774 -1.46467 16.6101 11.0839 5.32908e-015 -7.45058e-008 -0.0371261 -4.79113 14.6883 5.21944 0.842196 0.896514 -88.2483 8.31361 -104.365 4.71005 0.864691 -1.01195 99.903 0.615348 72.4432 9.67523 -7.32748e-015 1.19209e-007 -0.692078 -0.718323 2.88086 1.08197 -0.588651 -2.5338e-008 -3.38833 -0.000103817 0.00350398 1.47143 0.208519 2.53039e-006 2.34676 -1.177e-007 9.57939e-009 3.0694 -0.295851 3.1367e-008 5.82543 -3.56409e-007 4.1884e-008 4.67587 -0.164094 -1.27898e-013 -178.566 2.47873 -0.88522 13.1147 -1.77636e-015 2.84217e-014 -3.50068 -0.55116 19.586 13.4995 -4.10783e-015 -2.84217e-014 -2.51613 5.54834 19.8103 13.2851 -1.19209e-007 -9.53674e-007 -1.63 -1.80349 31.8602 14.6528 -1.77636e-014 -1.90735e-006 -1.81159 -1.93404 22.6647 13.1048 -1.45661e-013 3.8147e-006 1.09526 0.86122 20.2387 11.869 1.77636e-013 -3.8147e-006 -0.965229 -1.26468 19.542 
79.3591 3.97295 -8.39695 1.07932 0.409841 98.6855 5.06197 -0.168311 -9.9476e-014 0.0102859 -7.25411 22.4718 14.8952 4.76837e-007 2.86102e-006 1.79754 5.60047 32.939 14.3786 -3.19189e-015 -1.42109e-014 -0.74231 7.22539 17.4309 15.3325 2.66454e-015 0 -2.11186 -1.62758 17.1189 11.0839 -1.33227e-015 -7.45058e-008 -0.0381295 -4.60441 14.3776 5.1922 0.866404 1.01423 -88.1946 7.616 -104.579 4.70107 0.888537 -1.09585 99.784 0.300607 72.3657 9.67523 -6.66135e-015 1.19209e-007 -0.664751 -0.600249 2.34938 1.08197 -0.588651 -2.46577e-008 -3.65072 -0.00021577 0.00676897 1.47143 0.208506 2.52998e-006 2.34676 -1.37138e-007 1.42124e-008 3.0694 -0.295854 3.18486e-008 5.82548 -4.08783e-007 5.13504e-008 4.67587 -0.164094 -8.52651e-014 -178.456 2.37007 -0.361879 13.1147 -8.21565e-015 0 -3.47526 -0.57947 20.63 13.4995 -3.10862e-015 0 -2.4581 5.47972 19.7568 13.2851 -1.19209e-007 -9.53674e-007 -1.64866 -1.80323 32.2251 14.6528 -1.68754e-014 -1.90735e-006 -1.86732 -1.88166 22.6692 13.1048 -1.46549e-013 3.8147e-006 1.11666 0.856283 20.2752 11.869 1.53655e-013 -3.8147e-006 -1.2307 -1.26981 22.7789 
78.7636 3.97237 -10.7216 1.18649 0.415612 104.662 5.06197 -0.168311 -9.9476e-014 -0.400292 -6.26878 21.238 14.8952 4.76837e-007 2.86102e-006 1.97095 4.79734 32.8411 14.3786 5.10703e-015 0 -0.771365 7.1429 17.2478 15.3325 1.77636e-015 -7.10543e-015 -2.04025 -1.79423 17.6431 11.0839 1.77636e-015 -7.45058e-008 -0.0622875 -4.3609 14.0833 5.16356 0.893042 1.13755 -88.1429 6.90899 -104.794 4.69197 0.91268 -1.18068 99.6632 -0.0180797 72.2865 9.67523 -6.4393e-015 1.19209e-007 -0.635282 -0.481797 1.81456 1.08197 -0.588651 -2.40339e-008 -3.94854 -0.000156728 0.0045392 1.47143 0.208493 2.52957e-006 2.34676 2.551e-007 1.00283e-005 3.0694 -0.295859 3.23354e-008 5.82556 -4.58646e-007 6.09197e-008 4.67587 -0.164094 -9.9476e-014 -178.34 2.25357 0.18497 13.1147 -9.21485e-015 1.42109e-014 -3.44797 -0.606339 21.7191 13.4995 -4.88498e-015 -2.84217e-014 -2.39504 5.40899 19.7086 13.2851 -1.19209e-007 -9.53674e-007 -1.66508 -1.80062 32.5284 14.6528 -1.42109e-014 -1.90735e-006 -1.8885 -1.86238 22.6665 13.1048 -1.4122e-013 3.8147e-006 1.13028 0.852232 20.2902 11.869 1.54543e-013 -3.8147e-006 -1.50862 -1.26745 23.9347 
77.7313 3.97237 -12.9621 1.2965 0.447228 110.529 5.06197 -0.168311 -1.42109e-013 -0.752965 -5.26813 20.0424 14.8952 4.76837e-007 2.86102e-006 2.21556 3.97107 32.738 14.3786 6.38378e-015 -7.10543e-015 -0.797177 7.05324 17.0959 15.3325 -6.21725e-015 -7.10543e-015 -1.96855 -1.95706 18.1576 11.0839 0 -7.45058e-008 -0.0874789 -4.11591 13.7965 5.13503 0.919539 1.26042 -88.0948 6.21561 -105.004 4.68227 0.93861 -1.2699 99.5442 -0.330432 72.2082 9.67523 -8.88179e-015 1.19209e-007 -0.605012 -0.365853 1.28953 1.08197 -0.588651 -2.35008e-008 -4.24439 -5.66657e-005 0.00153197 1.47143 0.208478 2.52919e-006 2.34676 2.39633e-007 1.00325e-005 3.0694 -0.295861 3.2793e-008 5.82564 -5.03737e-007 6.99144e-008 4.67587 -0.164094 -1.56319e-013 -178.224 2.13945 0.720818 13.1147 -1.02141e-014 4.26326e-014 -3.421 -0.632228 22.7864 13.4995 -1.42109e-014 -8.52651e-014 -2.32525 5.33655 19.6689 13.2851 -1.19209e-007 -9.53674e-007 -1.67633 -1.79937 32.7723 14.6528 -1.24345e-014 -1.90735e-006 -1.8845 -1.86399 22.5198 13.1048 -1.39e-013 3.8147e-006 1.13209 0.848991 20.2087 11.869 1.42109e-013 -3.8147e-006 -1.77896 -1.23513 23.5317 
